<?xml version="1.0" encoding="utf-8"?>
<!-- Generator: Adobe Illustrator 19.0.0, SVG Export Plug-In . SVG Version: 6.00 Build 0)  -->
<svg version="1.1" id="Layer_1" xmlns="http://www.w3.org/2000/svg" xmlns:xlink="http://www.w3.org/1999/xlink" x="0px" y="0px"
	 width="60px" height="60px" viewBox="-609 371 60 60" style="enable-background:new -609 371 60 60;" xml:space="preserve">
<style type="text/css">
	.st0{opacity:0;fill:#FFFFFF;}
	.st1{fill:#D32F2F;}
</style>
<rect id="XMLID_53_" x="-609" y="371" class="st0" width="60" height="60"/>
<g id="Map-pointer">
	<path class="st1" d="M-580.3,381c-8.1,0-14.7,6.6-14.7,14.7c0,3.4,1.2,6.4,3,9c11.7,16.3,11.7,16.3,11.7,16.3s0,0,11.7-16.3
		c1.8-2.5,3-5.6,3-9C-565.6,387.6-572.2,381-580.3,381z M-580.3,404.9c-5.1,0-9.2-4.1-9.2-9.2c0-5.1,4.1-9.2,9.2-9.2
		c5.1,0,9.2,4.1,9.2,9.2C-571.1,400.8-575.2,404.9-580.3,404.9z"/>
</g>
</svg>
