<?xml version="1.0" encoding="utf-8"?>
<!-- Generator: Adobe Illustrator 19.0.0, SVG Export Plug-In . SVG Version: 6.00 Build 0)  -->
<svg version="1.1" id="Layer_1" xmlns="http://www.w3.org/2000/svg" xmlns:xlink="http://www.w3.org/1999/xlink" x="0px" y="0px"
	 viewBox="-265 377 40 40" style="enable-background:new -265 377 40 40;" xml:space="preserve">
<style type="text/css">
	.st0{fill:#010101;fill-opacity:0;}
	.st1{fill:#FFFFFF;}
</style>
<g id="XMLID_86_">
	<rect id="XMLID_90_" x="-265" y="377" class="st0" width="40" height="40"/>
	<g id="search">
		<g id="XMLID_117_">
			<path id="XMLID_456_" class="st1" d="M-232.3,408.4l-6.3-6.3c1.6-1.9,2.6-4.4,2.6-7.1c0-6.1-4.9-11-11-11s-11,4.9-11,11
				s4.9,11,11,11c2.7,0,5.2-1,7.1-2.6l6.3,6.3c0.4,0.4,1,0.4,1.3,0C-231.9,409.3-231.9,408.7-232.3,408.4z M-247,404c-5,0-9-4-9-9
				s4-9,9-9s9,4,9,9S-242,404-247,404z"/>
		</g>
	</g>
</g>
</svg>
