<?xml version="1.0" encoding="utf-8"?>
<!-- Generator: Adobe Illustrator 19.0.0, SVG Export Plug-In . SVG Version: 6.00 Build 0)  -->
<svg version="1.1" id="Layer_1" xmlns="http://www.w3.org/2000/svg" xmlns:xlink="http://www.w3.org/1999/xlink" x="0px" y="0px"
	 viewBox="-259.3 382 30 30" style="enable-background:new -259.3 382 30 30;" xml:space="preserve">
<style type="text/css">
	.st0{fill:#FFFFFF;fill-opacity:0;}
	.st1{fill:#FFFFFF;}
</style>
<g id="XMLID_81_">
	<rect id="XMLID_471_" x="-259.3" y="382" class="st0" width="30" height="30"/>
	<path id="XMLID_375_" class="st1" d="M-239.8,388h-2.3c-2.6,0-4.3,1.7-4.3,4.4v2h-2.3c-0.2,0-0.4,0.2-0.4,0.4v3
		c0,0.2,0.2,0.4,0.4,0.4h2.3v7.5c0,0.2,0.2,0.4,0.4,0.4h3.1c0.2,0,0.4-0.2,0.4-0.4v-7.5h2.7c0.2,0,0.4-0.2,0.4-0.4v-3
		c0-0.1,0-0.2-0.1-0.3c-0.1-0.1-0.2-0.1-0.3-0.1h-2.7v-1.7c0-0.8,0.2-1.3,1.3-1.3h1.6c0.2,0,0.4-0.2,0.4-0.4v-2.7
		C-239.4,388.2-239.6,388-239.8,388L-239.8,388z"/>
</g>
</svg>
