<?xml version="1.0" encoding="utf-8"?>
<!-- Generator: Adobe Illustrator 19.0.0, SVG Export Plug-In . SVG Version: 6.00 Build 0)  -->
<svg version="1.1" id="Layer_1" xmlns="http://www.w3.org/2000/svg" xmlns:xlink="http://www.w3.org/1999/xlink" x="0px" y="0px"
	 viewBox="-282 405.9 30 30" style="enable-background:new -282 405.9 30 30;" xml:space="preserve">
<style type="text/css">
	.st0{fill:#FFFFFF;}
</style>
<g>
	<path class="st0" d="M-261.1,411.3h-11.7c-2,0-3.7,1.7-3.7,3.7v11.7c0,2,1.7,3.7,3.7,3.7h11.7c2,0,3.7-1.7,3.7-3.7V415
		C-257.5,412.9-259.1,411.3-261.1,411.3L-261.1,411.3z M-260,413.3h0.5v3.2h-3.2v-3.2H-260z M-267,417.6c2.6,0,3.2,2.5,3.2,3.2
		c0,1.8-1.5,3.2-3.2,3.2c-1.8,0-3.2-1.5-3.2-3.2C-270.2,420.1-269.6,417.6-267,417.6L-267,417.6z M-259.6,426.4c0,1-0.8,1.8-1.8,1.8
		h-11.3c-1,0-1.8-0.8-1.8-1.8v-7.8h2.6c-0.2,0.6-0.3,1.5-0.3,2.1c0,2.8,2.4,5.2,5.2,5.2c2.8,0,5.2-2.4,5.2-5.2
		c0-0.7-0.1-1.5-0.3-2.1h2.6V426.4L-259.6,426.4z"/>
</g>
</svg>
