<?xml version="1.0" encoding="utf-8"?>
<!-- Generator: Adobe Illustrator 19.0.0, SVG Export Plug-In . SVG Version: 6.00 Build 0)  -->
<svg version="1.1" id="Layer_1" xmlns="http://www.w3.org/2000/svg" xmlns:xlink="http://www.w3.org/1999/xlink" x="0px" y="0px"
	 viewBox="-80 275.8 257 195" style="enable-background:new -80 275.8 257 195;" xml:space="preserve">
<style type="text/css">
	.st0{fill:#D8362A;}
	.st1{fill:#FFFFFF;}
</style>
<g>
	<path class="st0" d="M174.3,317.9c0,0-2.7-19.1-10.2-27.5c-9.7-11.1-20.8-11.1-25.7-11.5c-35.9-2.7-89.9-3.1-89.9-3.1l0,0
		c0,0-54.1,0.4-89.9,3.1c-4.9,0.4-16,0.9-25.7,11.5c-8,8.4-10.2,27.5-10.2,27.5s-2.7,22.6-2.7,45.2v20.8c0,22.6,2.7,44.8,2.7,44.8
		s2.7,19.1,10.2,27.5c9.7,11.1,22.6,10.6,28.4,12c20.4,2.2,87.3,2.7,87.3,2.7s54.1,0,90-3.1c4.9-0.4,16-0.9,25.7-11.5
		c7.5-8.4,10.2-27.5,10.2-27.5s2.7-22.6,2.7-44.8v-20.8C177,340.5,174.3,317.9,174.3,317.9"/>
	<polygon class="st1" points="17.5,328.5 17.5,424.7 101.7,377.7 	"/>
</g>
</svg>
